<?xml version="1.0" encoding="UTF-8"?>
<!DOCTYPE svg PUBLIC "-//W3C//DTD SVG 1.1//EN" "http://www.w3.org/Graphics/SVG/1.1/DTD/svg11.dtd">
<svg xmlns="http://www.w3.org/2000/svg" xmlns:xlink="http://www.w3.org/1999/xlink" version="1.1" width="900px" height="320px" viewBox="-0.5 -0.5 900 320" style="background-color: rgb(255, 255, 255);"><defs/><g><rect x="0" y="0" width="900" height="320" fill="rgb(255, 255, 255)" stroke="#ffffff" pointer-events="all"/><path d="M 155.5 79.25 L 175.5 79.25 L 175.63 79.25" fill="none" stroke="rgb(0, 0, 0)" stroke-miterlimit="10" pointer-events="stroke"/><path d="M 180.88 79.32 L 173.84 82.73 L 175.63 79.25 L 173.93 75.73 Z" fill="rgb(0, 0, 0)" stroke="rgb(0, 0, 0)" stroke-miterlimit="10" pointer-events="all"/><rect x="40" y="30" width="115.5" height="98.5" fill="rgb(255, 255, 255)" stroke="rgb(0, 0, 0)" pointer-events="all"/><g fill="rgb(0, 0, 0)" font-family="Helvetica" font-size="12px"><text x="41.5" y="48.75">- T1W</text><text x="41.5" y="62.75">- PD/T2W</text><text x="41.5" y="76.75">- T2-FLAIR</text><text x="41.5" y="90.75">- T2*</text><text x="41.5" y="104.75">- DIFFUSION</text><text x="41.5" y="118.75">- BOLD - Rest</text></g><rect x="39.25" y="10" width="120" height="27" fill="none" stroke="none" pointer-events="all"/><g fill="rgb(0, 0, 0)" font-family="Helvetica" font-weight="bold" text-anchor="middle" font-size="12px"><text x="98.75" y="28">SIMON CDIP dataset</text></g><path d="M 159.25 213.5 L 179.33 213.5 L 162 213.5 L 175.63 213.5" fill="none" stroke="rgb(0, 0, 0)" stroke-miterlimit="10" pointer-events="stroke"/><path d="M 180.88 213.5 L 173.88 217 L 175.63 213.5 L 173.88 210 Z" fill="rgb(0, 0, 0)" stroke="rgb(0, 0, 0)" stroke-miterlimit="10" pointer-events="all"/><rect x="38.75" y="162" width="120.5" height="103" fill="rgb(255, 255, 255)" stroke="rgb(0, 0, 0)" pointer-events="all"/><g fill="rgb(0, 0, 0)" font-family="Helvetica" font-size="12px"><text x="40.25" y="183">- Normal Brain</text><text x="40.25" y="197">- MS Lesions Brains </text><text x="40.25" y="211"> (mild, moderate, </text><text x="40.25" y="225"> severe)</text><text x="40.25" y="239">- 20 Normal </text><text x="40.25" y="253"> Anatomical Models</text></g><rect x="30.88" y="141" width="133.75" height="30" fill="none" stroke="none" pointer-events="all"/><g fill="rgb(0, 0, 0)" font-family="Helvetica" font-weight="bold" text-anchor="middle" font-size="12px"><text x="97.26" y="160.5">BrainWeb phantoms</text></g><path d="M 24 139 L 882 142" fill="none" stroke="rgb(0, 0, 0)" stroke-width="3" stroke-miterlimit="10" stroke-dasharray="9 9" pointer-events="stroke"/><path d="M 315 79.33 L 335 79.33 L 338.67 79.27" fill="none" stroke="rgb(0, 0, 0)" stroke-miterlimit="10" pointer-events="stroke"/><path d="M 343.92 79.19 L 336.98 82.8 L 338.67 79.27 L 336.87 75.8 Z" fill="rgb(0, 0, 0)" stroke="rgb(0, 0, 0)" stroke-miterlimit="10" pointer-events="all"/><rect x="182" y="53.87" width="133" height="50.75" fill="rgb(255, 255, 255)" stroke="rgb(0, 0, 0)" pointer-events="all"/><g fill="rgb(0, 0, 0)" font-family="Helvetica" text-anchor="middle" font-size="12px"><text x="248" y="76.74">Computation of radiomic </text><text x="248" y="90.74">features</text></g><path d="M 318 213.58 L 417.08 213.58 L 509.76 213.51" fill="none" stroke="rgb(0, 0, 0)" stroke-miterlimit="10" pointer-events="stroke"/><path d="M 515.01 213.5 L 508.01 217.01 L 509.76 213.51 L 508.01 210.01 Z" fill="rgb(0, 0, 0)" stroke="rgb(0, 0, 0)" stroke-miterlimit="10" pointer-events="all"/><rect x="182" y="177.75" width="136" height="71.5" fill="rgb(255, 255, 255)" stroke="rgb(0, 0, 0)" pointer-events="all"/><g fill="rgb(0, 0, 0)" font-family="Helvetica" text-anchor="middle" font-size="12px"><text x="249.5" y="197">Simulations of patients </text><text x="249.5" y="211">with and without medical </text><text x="249.5" y="225">conditions using various </text><text x="249.5" y="239">T1 and T2 weights</text></g><path d="M 598.5 96.74 L 598.5 187.13" fill="none" stroke="rgb(0, 0, 0)" stroke-miterlimit="10" pointer-events="stroke"/><path d="M 598.5 192.38 L 595 185.38 L 598.5 187.13 L 602 185.38 Z" fill="rgb(0, 0, 0)" stroke="rgb(0, 0, 0)" stroke-miterlimit="10" pointer-events="all"/><path d="M 355 61.74 L 842 61.74 L 852 79.24 L 842 96.74 L 355 96.74 L 345 79.24 Z" fill="#97d077" stroke="rgb(0, 0, 0)" stroke-miterlimit="10" pointer-events="all"/><g fill="rgb(0, 0, 0)" font-family="Helvetica" font-weight="bold" text-anchor="middle" font-size="13px"><text x="598" y="84.24">1. Selection of robust radiomic features (subset 1)</text></g><rect x="182" y="32" width="60" height="30" fill="none" stroke="none" pointer-events="all"/><g fill="rgb(0, 0, 0)" font-family="Helvetica" font-weight="bold" text-anchor="middle" font-size="12px"><text x="211.5" y="51.5">MEDimage</text></g><rect x="516" y="171" width="60" height="30" fill="none" stroke="none" pointer-events="all"/><g fill="rgb(0, 0, 0)" font-family="Helvetica" font-weight="bold" text-anchor="middle" font-size="12px"><rect fill="#FFFFFF" stroke="none" x="515" y="180" width="63" height="15" stroke-width="0"/><text x="545.5" y="190.5">MEDImage</text></g><path d="M 598.5 233.5 L 598.5 253.5 L 598.45 263.63" fill="none" stroke="rgb(0, 0, 0)" stroke-miterlimit="10" pointer-events="stroke"/><path d="M 598.42 268.88 L 594.96 261.86 L 598.45 263.63 L 601.96 261.9 Z" fill="rgb(0, 0, 0)" stroke="rgb(0, 0, 0)" stroke-miterlimit="10" pointer-events="all"/><rect x="516.13" y="193.5" width="164.75" height="40" fill="rgb(255, 255, 255)" stroke="rgb(0, 0, 0)" pointer-events="all"/><g fill="rgb(0, 0, 0)" font-family="Helvetica" text-anchor="middle" font-size="12px"><rect fill="#FFFFFF" stroke="none" x="533" y="200" width="132" height="30" stroke-width="0"/><text x="598.01" y="211">Computation of radiomic </text><text x="598.01" y="225">features of subset1</text></g><path d="M 362.44 270 L 834.56 270 L 844.56 291 L 834.56 312 L 362.44 312 L 352.44 291 Z" fill="#97d077" stroke="rgb(0, 0, 0)" stroke-miterlimit="10" pointer-events="all"/><g fill="rgb(0, 0, 0)" font-family="Helvetica" font-weight="bold" text-anchor="middle" font-size="13px"><text x="598" y="288">2. Radiomic features optimizing discrimination between different </text><text x="598" y="304">classes of patients (subset 2 ⊆  subset 1)</text></g><rect x="175" y="156" width="60" height="30" fill="none" stroke="none" pointer-events="all"/><g fill="#333333" font-family="Helvetica" font-weight="bold" text-anchor="middle" font-size="12px"><text x="204.5" y="175.5">MRiLab</text></g></g></svg>