<svg xmlns="http://www.w3.org/2000/svg" viewBox="0 0 143.67 130.83"><path d="M22.82,110.32l-8.28,12.39h8.28v2.79H8.09l8.34-12.4H8.66v-2.78Z" fill="#fff"/><path d="M32.52,125.5V124a4.25,4.25,0,0,1-3.31,1.66,3.7,3.7,0,0,1-2.72-1,3.86,3.86,0,0,1-1-2.86v-6.56h3.23v6.34q0,2,1.62,2a2,2,0,0,0,1.55-.71c.44-.48.65-.82.65-1v-6.53h3.25V125.5ZM28,110.17a1.67,1.67,0,0,1,1.27.51,1.71,1.71,0,0,1,.51,1.26,1.75,1.75,0,0,1-.51,1.27,1.79,1.79,0,0,1-2.52,0,1.72,1.72,0,0,1-.52-1.27A1.76,1.76,0,0,1,28,110.17Zm5.18,0a1.79,1.79,0,0,1,1.28,3,1.71,1.71,0,0,1-1.28.52,1.68,1.68,0,0,1-1.25-.52,1.76,1.76,0,0,1-.52-1.27,1.74,1.74,0,0,1,.52-1.26A1.71,1.71,0,0,1,33.17,110.17Z" fill="#fff"/><path d="M42.31,115.24v2.93h0Q43.76,115,45.63,115a3.8,3.8,0,0,1,2.14.94l-.89,2.85a4,4,0,0,0-1.91-.76,2.22,2.22,0,0,0-1.89,1.39,7.07,7.07,0,0,0-.77,1.62v4.44H39.09V115.24Z" fill="#fff"/><path d="M49.44,111.9a1.79,1.79,0,0,1,1.78-1.78,1.78,1.78,0,0,1,1.26,3,1.72,1.72,0,0,1-1.26.53,1.69,1.69,0,0,1-1.25-.53A1.72,1.72,0,0,1,49.44,111.9Zm3.4,3.34V125.5H49.62V115.24Z" fill="#fff"/><path d="M65.12,122.69V125a10.37,10.37,0,0,1-3.46.68,6.23,6.23,0,0,1-4.33-1.45,4.91,4.91,0,0,1-1.61-3.85,5,5,0,0,1,1.63-3.85A5.9,5.9,0,0,1,61.52,115a10,10,0,0,1,3.45.68v2.4a5.71,5.71,0,0,0-2.63-.69,3.25,3.25,0,0,0-2.31.81,2.77,2.77,0,0,0-.87,2.15,2.94,2.94,0,0,0,.85,2.2,3,3,0,0,0,2.22.83A8.9,8.9,0,0,0,65.12,122.69Z" fill="#fff"/><path d="M71.13,110.32v6.42h.05A4,4,0,0,1,74.43,115a3.72,3.72,0,0,1,2.7,1A3.89,3.89,0,0,1,78.19,119v6.55H75v-5.87c0-1.49-.56-2.24-1.66-2.24-.74,0-1.46.52-2.17,1.56v6.55H67.91V110.32Z" fill="#fff"/><path d="M98.07,122.4v3.1H88v-.43c.92-1.12,2-2.54,3.16-4.26a25.42,25.42,0,0,0,2.24-3.67,5.18,5.18,0,0,0,.47-2.11,2.21,2.21,0,0,0-.59-1.53,1.87,1.87,0,0,0-1.43-.64,5.62,5.62,0,0,0-3.65,1.89v-3.18a7.82,7.82,0,0,1,4.25-1.45A5.11,5.11,0,0,1,96,111.27a4,4,0,0,1,1.29,3.17q0,2.75-4.12,8Z" fill="#fff"/><path d="M105.85,110.12a4.25,4.25,0,0,1,3.77,2.08,10.23,10.23,0,0,1,1.35,5.64,10.85,10.85,0,0,1-1.31,5.78,4.2,4.2,0,0,1-3.76,2.07,4.37,4.37,0,0,1-3.85-2.06,12.51,12.51,0,0,1,0-11.46A4.36,4.36,0,0,1,105.85,110.12Zm0,12.72c.61,0,1.05-.36,1.33-1.1a13.57,13.57,0,0,0,.41-4.14,11.06,11.06,0,0,0-.4-3.58,1.4,1.4,0,0,0-2.71,0,12.29,12.29,0,0,0-.43,4.06,11,11,0,0,0,.43,3.67A1.45,1.45,0,0,0,105.85,122.84Z" fill="#fff"/><path d="M123.78,122.4v3.1h-10v-.43c.91-1.12,2-2.54,3.15-4.26a25.42,25.42,0,0,0,2.24-3.67,5.18,5.18,0,0,0,.47-2.11,2.21,2.21,0,0,0-.59-1.53,1.87,1.87,0,0,0-1.43-.64,5.62,5.62,0,0,0-3.65,1.89v-3.18a7.82,7.82,0,0,1,4.25-1.45,5.11,5.11,0,0,1,3.52,1.15,4,4,0,0,1,1.29,3.17q0,2.75-4.12,8Z" fill="#fff"/><path d="M136.64,122.4v3.1h-10v-.43q1.38-1.68,3.16-4.26a26.41,26.41,0,0,0,2.24-3.67,5.35,5.35,0,0,0,.47-2.11,2.17,2.17,0,0,0-.6-1.53,1.85,1.85,0,0,0-1.42-.64,5.6,5.6,0,0,0-3.65,1.89v-3.18a7.79,7.79,0,0,1,4.24-1.45,5.14,5.14,0,0,1,3.53,1.15,4,4,0,0,1,1.29,3.17q0,2.75-4.12,8Z" fill="#fff"/><path d="M26.26,82.8,36.79,70.66h7.09V103.4H35.72V83L26.88,93.23H25.65L16.81,83V103.4H8.65V70.66h7.08Z" fill="#fff"/><path d="M62,70.66V103.4H53.8V70.66Z" fill="#fff"/><path d="M71.86,70.66H86.29q8.37,0,13.23,4.58a15.54,15.54,0,0,1,4.87,11.85q0,7.62-4.94,12T85.38,103.4H71.86Zm8.15,6V97.4h5.32c3.46,0,6.1-.94,7.93-2.84A10.42,10.42,0,0,0,96,87.05a10.29,10.29,0,0,0-2.78-7.61q-2.77-2.77-8-2.78Z" fill="#fff"/><path d="M137.75,97.4v6h-25V70.66h8.15V97.4Z" fill="#fff"/><path d="M57.27,52.44a7.83,7.83,0,1,1-7.83-7.83A7.83,7.83,0,0,1,57.27,52.44Z" fill="#fff"/><line x1="49.44" y1="52.44" x2="90.93" y2="34.55" fill="none" stroke="#fff" stroke-miterlimit="10" stroke-width="2"/><path d="M101,34.55a10.06,10.06,0,1,1-10.06-10A10.06,10.06,0,0,1,101,34.55Z" fill="#fff"/><path d="M30.05,38.32a5.72,5.72,0,1,1-5.72-5.71A5.72,5.72,0,0,1,30.05,38.32Z" fill="#fff"/><line x1="21.58" y1="36.6" x2="49.93" y2="52.55" fill="none" stroke="#fff" stroke-miterlimit="10" stroke-width="2"/><path d="M125.05,47.32a5.72,5.72,0,1,1-5.72-5.71A5.72,5.72,0,0,1,125.05,47.32Z" fill="#fff"/><line x1="90.44" y1="34.44" x2="119.33" y2="47.32" fill="none" stroke="#fff" stroke-miterlimit="10" stroke-width="2"/><line x1="90.44" y1="33.44" x2="110.05" y2="10.04" fill="none" stroke="#fff" stroke-miterlimit="10" stroke-width="2"/><path d="M113.48,10a3.44,3.44,0,1,1-3.43-3.43A3.44,3.44,0,0,1,113.48,10Z" fill="#fff"/></svg>