<?xml version="1.0" encoding="UTF-8" standalone="no"?>
<!DOCTYPE svg PUBLIC "-//W3C//DTD SVG 1.1//EN" "http://www.w3.org/Graphics/SVG/1.1/DTD/svg11.dtd">
<svg xmlns="http://www.w3.org/2000/svg" xmlns:xlink="http://www.w3.org/1999/xlink" version="1.1" width="841.92pt" height="597.12pt" viewBox="0 0 841.92 597.12">
<g enable-background="new">
<clipPath id="cp0">
<path transform="matrix(.24,0,0,.24,0,0)" d="M 0 0 L 3508.3333 0 L 3508.3333 2485.819 L 0 2485.819 Z " fill-rule="evenodd"/>
</clipPath>
<g clip-path="url(#cp0)">
<path transform="matrix(.7196581,0,0,.7196581,0,0)" d="M 0 0 L 1170 0 L 1170 829 L 0 829 Z " fill="#ffffff"/>
<path transform="matrix(.7196581,0,0,.7196581,0,0)" d="M 0 0 L 1170 0 L 1170 828 L 0 828 Z " fill="#ffffff"/>
</g>
<clipPath id="cp1">
<path transform="matrix(.24,0,0,.24,0,0)" d="M 0 0 L 3508.3333 0 L 3508.3333 2482.8206 L 0 2482.8206 Z " fill-rule="evenodd"/>
</clipPath>
<g clip-path="url(#cp1)">
<path transform="matrix(.7196581,0,0,.7196581,.35982905,.35982905)" d="M 116.4 34 C 116.4 15.33 314 15.33 314 34 L 314 118.59 C 314 137.26 116.4 137.26 116.4 118.59 L 116.4 34 Z " fill="#ffff00"/>
<path transform="matrix(.7196581,0,0,.7196581,.35982905,.35982905)" stroke-width="1" stroke-linecap="butt" stroke-miterlimit="10" stroke-linejoin="miter" fill="none" stroke="#000000" d="M 116.4 34 C 116.4 15.33 314 15.33 314 34 L 314 118.59 C 314 137.26 116.4 137.26 116.4 118.59 L 116.4 34 Z "/>
<path transform="matrix(.7196581,0,0,.7196581,.35982905,.35982905)" stroke-width="1" stroke-linecap="butt" stroke-miterlimit="10" stroke-linejoin="miter" fill="none" stroke="#000000" d="M 116.4 34 C 116.4 48 314 48 314 34 M 116.4 41 C 116.4 55 314 55 314 41 M 116.4 48 C 116.4 62 314 62 314 48 "/>
<g id="Layer-1" data-name="P">
</g>
<text xml:space="preserve" transform="matrix(.7196581 0 0 .7196581 0 0)" font-size="20" font-family="ArialMT"><tspan y="102" x="176.46875 187.94336 194.60337 205.72336 210.16336 221.28336 226.84336 236.84336 247.96335">Train set</tspan></text>
<path transform="matrix(.7196581,0,0,.7196581,.35982905,.35982905)" d="M 709.2 34 C 709.2 15.33 906.8 15.33 906.8 34 L 906.8 118.59 C 906.8 137.26 709.2 137.26 709.2 118.59 L 709.2 34 Z " fill="#66b2ff"/>
<path transform="matrix(.7196581,0,0,.7196581,.35982905,.35982905)" stroke-width="1" stroke-linecap="butt" stroke-miterlimit="10" stroke-linejoin="miter" fill="none" stroke="#000000" d="M 709.2 34 C 709.2 15.33 906.8 15.33 906.8 34 L 906.8 118.59 C 906.8 137.26 709.2 137.26 709.2 118.59 L 709.2 34 Z "/>
<path transform="matrix(.7196581,0,0,.7196581,.35982905,.35982905)" stroke-width="1" stroke-linecap="butt" stroke-miterlimit="10" stroke-linejoin="miter" fill="none" stroke="#000000" d="M 709.2 34 C 709.2 48 906.8 48 906.8 34 M 709.2 41 C 709.2 55 906.8 55 906.8 41 M 709.2 48 C 709.2 62 906.8 62 906.8 48 "/>
<g id="Layer-1" data-name="P">
</g>
<text xml:space="preserve" transform="matrix(.7196581 0 0 .7196581 0 0)" font-size="20" font-family="ArialMT"><tspan y="102" x="773.53128 783.53128 794.65127 804.65127 810.21127 815.77127 825.77127 836.89126">Test set</tspan></text>
<path transform="matrix(.7196581,0,0,.7196581,.35982905,.35982905)" stroke-width="1" stroke-linecap="butt" stroke-miterlimit="10" stroke-linejoin="miter" fill="none" stroke="#000000" d="M 557.2 76.3 L 702.83 76.3 "/>
<path transform="matrix(.7196581,0,0,.7196581,.35982905,.35982905)" d="M 708.08 76.3 L 701.08 79.8 L 702.83 76.3 L 701.08 72.8 L 708.08 76.3 Z "/>
<path transform="matrix(.7196581,0,0,.7196581,.35982905,.35982905)" stroke-width="1" stroke-linecap="butt" stroke-miterlimit="10" stroke-linejoin="miter" fill="none" stroke="#000000" d="M 708.08 76.3 L 701.08 79.8 L 702.83 76.3 L 701.08 72.8 L 708.08 76.3 Z "/>
<path transform="matrix(.7196581,0,0,.7196581,0,0)" d="M 601 66 L 652 66 L 652 90 L 601 90 Z " fill="#ffffff"/>
<g id="Layer-1" data-name="P">
</g>
<text xml:space="preserve" transform="matrix(.7196581 0 0 .7196581 0 0)" font-size="20" font-family="ArialMT"><tspan y="85" x="600.9375 613.1575 626.4975 639.8375">TEST</tspan></text>
<path transform="matrix(.7196581,0,0,.7196581,.35982905,.35982905)" d="M 466 20 L 557.2 20 L 557.2 132.59 L 466 132.59 Z "/>
<path transform="matrix(.7196581,0,0,.7196581,.35982905,.35982905)" stroke-width="1" stroke-linecap="butt" stroke-miterlimit="4" stroke-linejoin="miter" fill="none" stroke="#000000" d="M 466 20 L 557.2 20 L 557.2 132.59 L 466 132.59 Z "/>
<g id="Layer-1" data-name="P">
</g>
<text fill="#ffffff" xml:space="preserve" transform="matrix(.7196581 0 0 .7196581 0 0)" font-size="20" font-family="ArialMT"><tspan y="60" x="484.8125 498.1525 509.2725 520.3925 531.5125">Super</tspan></text>
<g id="Layer-1" data-name="P">
</g>
<text fill="#ffffff" xml:space="preserve" transform="matrix(.7196581 0 0 .7196581 0 0)" font-size="20" font-family="ArialMT"><tspan y="84" x="480.375 484.815 495.935 507.055 513.71499 524.83499 535.95498">learner</tspan></text>
<g id="Layer-1" data-name="P">
</g>
<text fill="#ffffff" xml:space="preserve" transform="matrix(.7196581 0 0 .7196581 0 0)" font-size="20" font-family="ArialMT"><tspan y="108" x="473.71876 490.37876 501.49876 508.15876 513.71878 524.83877 529.27877 533.71878 539.27877">Mortality</tspan></text>
<path transform="matrix(.7196581,0,0,.7196581,.35982905,.35982905)" stroke-width="1" stroke-linecap="butt" stroke-miterlimit="10" stroke-linejoin="miter" fill="none" stroke="#000000" d="M 314 76.3 L 459.63 76.3 "/>
<path transform="matrix(.7196581,0,0,.7196581,.35982905,.35982905)" d="M 464.88 76.3 L 457.88 79.8 L 459.63 76.3 L 457.88 72.8 L 464.88 76.3 Z "/>
<path transform="matrix(.7196581,0,0,.7196581,.35982905,.35982905)" stroke-width="1" stroke-linecap="butt" stroke-miterlimit="10" stroke-linejoin="miter" fill="none" stroke="#000000" d="M 464.88 76.3 L 457.88 79.8 L 459.63 76.3 L 457.88 72.8 L 464.88 76.3 Z "/>
<path transform="matrix(.7196581,0,0,.7196581,0,0)" d="M 367 66 L 427 66 L 427 90 L 367 90 Z " fill="#ffffff"/>
<g id="Layer-1" data-name="P">
</g>
<text xml:space="preserve" transform="matrix(.7196581 0 0 .7196581 0 0)" font-size="20" font-family="ArialMT"><tspan y="85" x="366.5 378.72 393.16 406.5 412.06">TRAIN</tspan></text>
<path transform="matrix(.7196581,0,0,.7196581,.35982905,.35982905)" d="M 25.2 57.53 C 13.04 57.53 10 76.3 19.73 80.05 C 10 88.31 20.94 106.32 28.85 98.81 C 34.32 113.83 52.56 113.83 58.64 98.81 C 70.8 98.81 70.8 83.8 63.2 76.3 C 70.8 61.28 58.64 46.27 48 53.78 C 40.4 42.52 28.24 42.52 25.2 57.53 Z " fill="#ffb366"/>
<path transform="matrix(.7196581,0,0,.7196581,.35982905,.35982905)" stroke-width="1" stroke-linecap="butt" stroke-miterlimit="10" stroke-linejoin="miter" fill="none" stroke="#000000" d="M 25.2 57.53 C 13.04 57.53 10 76.3 19.73 80.05 C 10 88.31 20.94 106.32 28.85 98.81 C 34.32 113.83 52.56 113.83 58.64 98.81 C 70.8 98.81 70.8 83.8 63.2 76.3 C 70.8 61.28 58.64 46.27 48 53.78 C 40.4 42.52 28.24 42.52 25.2 57.53 Z "/>
<g id="Layer-1" data-name="P">
</g>
<text xml:space="preserve" transform="matrix(.7196581 0 0 .7196581 0 0)" font-size="20" font-family="Arial" font-weight="bold"><tspan y="84" x="32.15625 43.276254">1.</tspan></text>
<path transform="matrix(.7196581,0,0,.7196581,.35982905,.35982905)" d="M 25.2 310.86 C 13.04 310.86 10 329.63 19.73 333.38 C 10 341.64 20.94 359.65 28.85 352.15 C 34.32 367.16 52.56 367.16 58.64 352.15 C 70.8 352.15 70.8 337.14 63.2 329.63 C 70.8 314.62 58.64 299.6 48 307.11 C 40.4 295.85 28.24 295.85 25.2 310.86 Z " fill="#ffb366"/>
<path transform="matrix(.7196581,0,0,.7196581,.35982905,.35982905)" stroke-width="1" stroke-linecap="butt" stroke-miterlimit="10" stroke-linejoin="miter" fill="none" stroke="#000000" d="M 25.2 310.86 C 13.04 310.86 10 329.63 19.73 333.38 C 10 341.64 20.94 359.65 28.85 352.15 C 34.32 367.16 52.56 367.16 58.64 352.15 C 70.8 352.15 70.8 337.14 63.2 329.63 C 70.8 314.62 58.64 299.6 48 307.11 C 40.4 295.85 28.24 295.85 25.2 310.86 Z "/>
<g id="Layer-1" data-name="P">
</g>
<text xml:space="preserve" transform="matrix(.7196581 0 0 .7196581 0 0)" font-size="20" font-family="Arial" font-weight="bold"><tspan y="338" x="32.15625 43.276254">2.</tspan></text>
<path transform="matrix(.7196581,0,0,.7196581,.35982905,.35982905)" stroke-width="1" stroke-linecap="butt" stroke-miterlimit="4" stroke-linejoin="miter" fill="none" stroke="#000000" d="M 967.6 20 L 1150 20 L 1150 132.59 L 967.6 132.59 Z "/>
<path transform="matrix(.7196581,0,0,.7196581,.35982905,.35982905)" stroke-width="1" stroke-linecap="butt" stroke-miterlimit="10" stroke-linejoin="miter" fill="none" stroke="#000000" d="M 985.6 20 L 985.6 132.59 M 1132 20 L 1132 132.59 "/>
<g id="Layer-1" data-name="P">
</g>
<text xml:space="preserve" transform="matrix(.7196581 0 0 .7196581 0 0)" font-size="20" font-family="ArialMT"><tspan y="72" x="987.84378 1001.1838 1007.84378 1018.96377 1030.0838 1034.5237 1044.5237 1050.0838 1061.2037 1072.3237 1077.8838 1082.3237 1093.4437 1104.5637 1115.6837 1120.1237">Predicted labels</tspan></text>
<g id="Layer-1" data-name="P">
</g>
<text xml:space="preserve" transform="matrix(.7196581 0 0 .7196581 0 0)" font-size="20" font-family="ArialMT"><tspan y="96" x="1013.4219 1024.5419 1030.1019 1035.662 1045.6582 1056.7782 1066.7782 1072.3383 1077.8983 1087.8983 1099.0183">of Test set</tspan></text>
<path transform="matrix(.7196581,0,0,.7196581,.35982905,.35982905)" stroke-width="1" stroke-linecap="butt" stroke-miterlimit="10" stroke-linejoin="miter" fill="none" stroke="#000000" d="M 906.8 76.3 L 961.23 76.3 "/>
<path transform="matrix(.7196581,0,0,.7196581,.35982905,.35982905)" d="M 966.48 76.3 L 959.48 79.8 L 961.23 76.3 L 959.48 72.8 L 966.48 76.3 Z "/>
<path transform="matrix(.7196581,0,0,.7196581,.35982905,.35982905)" stroke-width="1" stroke-linecap="butt" stroke-miterlimit="10" stroke-linejoin="miter" fill="none" stroke="#000000" d="M 966.48 76.3 L 959.48 79.8 L 961.23 76.3 L 959.48 72.8 L 966.48 76.3 Z "/>
<path transform="matrix(.7196581,0,0,.7196581,.35982905,.35982905)" stroke-width="1" stroke-linecap="butt" stroke-miterlimit="4" stroke-linejoin="miter" fill="none" stroke="#000000" d="M 724.4 263.95 L 906.80007 263.95 L 906.80007 376.54 L 724.4 376.54 Z "/>
<path transform="matrix(.7196581,0,0,.7196581,.35982905,.35982905)" stroke-width="1" stroke-linecap="butt" stroke-miterlimit="10" stroke-linejoin="miter" fill="none" stroke="#000000" d="M 742.4 263.95 L 742.4 376.54 M 888.8 263.95 L 888.8 376.54 "/>
<g id="Layer-1" data-name="P">
</g>
<text xml:space="preserve" transform="matrix(.7196581 0 0 .7196581 0 0)" font-size="20" font-family="ArialMT"><tspan y="328" x="758.3125 774.9725 779.4125 789.4125 799.4125 803.8525 814.9725 824.9725 834.9725 839.4125 844.9725 849.4125 860.5325">Misclassified</tspan></text>
<path transform="matrix(.7196581,0,0,.7196581,.35982905,.35982905)" stroke-width="1" stroke-linecap="butt" stroke-miterlimit="4" stroke-linejoin="miter" fill="none" stroke="#000000" d="M 124 207.65 L 306.4 207.65 L 306.4 320.24 L 124 320.24 Z "/>
<path transform="matrix(.7196581,0,0,.7196581,.35982905,.35982905)" stroke-width="1" stroke-linecap="butt" stroke-miterlimit="10" stroke-linejoin="miter" fill="none" stroke="#000000" d="M 142 207.65 L 142 320.25 M 288.4 207.65 L 288.4 320.25 "/>
<g id="Layer-1" data-name="P">
</g>
<text xml:space="preserve" transform="matrix(.7196581 0 0 .7196581 0 0)" font-size="20" font-family="ArialMT"><tspan y="260" x="143.84375 157.18375 163.84375 174.96375 186.08374 190.52375 200.52375 206.08374 217.20374 228.32373 233.88373 238.32373 249.44373 260.56373 271.68373 276.12373">Predicted labels</tspan></text>
<g id="Layer-1" data-name="P">
</g>
<text xml:space="preserve" transform="matrix(.7196581 0 0 .7196581 0 0)" font-size="20" font-family="ArialMT"><tspan y="284" x="169.42188 180.54187 186.10187 191.66187 201.6582 212.7782 222.7782 228.3382 233.8982 243.8982 255.01819">of Test set</tspan></text>
<path transform="matrix(.7196581,0,0,.7196581,.35982905,.35982905)" stroke-width="1" stroke-linecap="butt" stroke-miterlimit="4" stroke-linejoin="miter" fill="none" stroke="#000000" d="M 124 339.01 L 306.4 339.01 L 306.4 451.6 L 124 451.6 Z "/>
<path transform="matrix(.7196581,0,0,.7196581,.35982905,.35982905)" stroke-width="1" stroke-linecap="butt" stroke-miterlimit="10" stroke-linejoin="miter" fill="none" stroke="#000000" d="M 142 339.01 L 142 451.6 M 288.4 339.01 L 288.4 451.6 "/>
<g id="Layer-1" data-name="P">
</g>
<text xml:space="preserve" transform="matrix(.7196581 0 0 .7196581 0 0)" font-size="20" font-family="ArialMT"><tspan y="391" x="154.78125 166.25586 172.91587 184.03586 195.15586 200.71585 205.15586 216.27585 227.39585 238.51584 242.95584 252.95584 258.51585 269.63584">True labels of</tspan></text>
<g id="Layer-1" data-name="P">
</g>
<text xml:space="preserve" transform="matrix(.7196581 0 0 .7196581 0 0)" font-size="20" font-family="ArialMT"><tspan y="415" x="180.54688 190.54688 201.66687 211.66687 217.22687 222.78687 232.78687 243.90686">Test set</tspan></text>
<path transform="matrix(-.7196581,0,0,.7196581,496.0603,.35982905)" stroke-width="1" stroke-linecap="butt" stroke-miterlimit="10" stroke-linejoin="miter" fill="none" stroke="#000000" d="M 359.6 207.65 L 352 207.65 C 346.93333 207.65 344.4 210.98332 344.4 217.65 L 344.4 319.63 C 344.4 326.29667 341.86668 329.63 336.8 329.63 L 333 329.63 C 330.46669 329.63 331.73335 329.63 336.8 329.63 L 340.6 329.63 C 343.13334 329.63 344.4 332.96336 344.4 339.63 L 344.4 441.6 C 344.4 448.26667 346.93333 451.6 352 451.6 L 359.6 451.6 "/>
<g id="Layer-1" data-name="P">
</g>
<text xml:space="preserve" transform="matrix(.7196581 0 0 .7196581 0 0)" font-size="20" font-family="ArialMT"><tspan y="251" x="398.875 409.995 415.555 419.995 425.555 431.115 442.235 448.895 460.01499 471.13499 475.57499 485.57499 491.13499 502.25498 513.375 518.935 523.375 534.495 545.615 556.735 561.175 566.735 578.415 590.095 595.65499 601.21499 607.87496 618.99496">0 if predicted label == true</tspan></text>
<g id="Layer-1" data-name="P">
</g>
<text xml:space="preserve" transform="matrix(.7196581 0 0 .7196581 0 0)" font-size="20" font-family="ArialMT"><tspan y="275" x="493.375 497.815 508.935 520.055 531.175">label</tspan></text>
<g id="Layer-1" data-name="P">
</g>
<text xml:space="preserve" transform="matrix(.7196581 0 0 .7196581 0 0)" font-size="20" font-family="ArialMT"><tspan y="391" x="398.875 409.995 415.555 419.995 425.555 431.115 442.235 448.895 460.01499 471.13499 475.57499 485.57499 491.13499 502.25498 513.375 518.935 523.375 534.495 545.615 556.735 561.175 566.735 578.415 590.095 595.65499 601.21499 607.87496 618.99496">1 if predicted label &#x003c;&#x003e; true</tspan></text>
<g id="Layer-1" data-name="P">
</g>
<text xml:space="preserve" transform="matrix(.7196581 0 0 .7196581 0 0)" font-size="20" font-family="ArialMT"><tspan y="415" x="493.375 497.815 508.935 520.055 531.175">label</tspan></text>
<path transform="matrix(-.7196581,0,0,.7196581,977.3676,.35982905)" stroke-width="1" stroke-linecap="butt" stroke-miterlimit="10" stroke-linejoin="miter" fill="none" stroke="#000000" d="M 694 207.65 L 686.4 207.65 C 681.3333 207.65 678.8 210.98332 678.8 217.65 L 678.8 319.63 C 678.8 326.29667 676.26669 329.63 671.2 329.63 L 667.4 329.63 C 664.86666 329.63 666.1333 329.63 671.2 329.63 L 675 329.63 C 677.5333 329.63 678.8 332.96336 678.8 339.63 L 678.8 441.6 C 678.8 448.26667 681.3333 451.6 686.4 451.6 L 694 451.6 "/>
<path transform="matrix(.7196581,0,0,.7196581,.35982905,.35982905)" d="M 25.2 611.11 C 13.04 611.11 10 629.88 19.73 633.63 C 10 641.89 20.94 659.9 28.85 652.4 C 34.32 667.41 52.56 667.41 58.64 652.4 C 70.8 652.4 70.8 637.38 63.2 629.88 C 70.8 614.86 58.64 599.85 48 607.36 C 40.4 596.1 28.24 596.1 25.2 611.11 Z " fill="#ffb366"/>
<path transform="matrix(.7196581,0,0,.7196581,.35982905,.35982905)" stroke-width="1" stroke-linecap="butt" stroke-miterlimit="10" stroke-linejoin="miter" fill="none" stroke="#000000" d="M 25.2 611.11 C 13.04 611.11 10 629.88 19.73 633.63 C 10 641.89 20.94 659.9 28.85 652.4 C 34.32 667.41 52.56 667.41 58.64 652.4 C 70.8 652.4 70.8 637.38 63.2 629.88 C 70.8 614.86 58.64 599.85 48 607.36 C 40.4 596.1 28.24 596.1 25.2 611.11 Z "/>
<g id="Layer-1" data-name="P">
</g>
<text xml:space="preserve" transform="matrix(.7196581 0 0 .7196581 0 0)" font-size="20" font-family="Arial" font-weight="bold"><tspan y="638" x="32.15625 43.276254">3.</tspan></text>
<path transform="matrix(.7196581,0,0,.7196581,.35982905,.35982905)" d="M 101.2 587.58 C 101.2 568.91 298.8 568.91 298.8 587.58 L 298.8 672.17 C 298.8 690.84 101.2 690.84 101.2 672.17 L 101.2 587.58 Z " fill="#66b2ff"/>
<path transform="matrix(.7196581,0,0,.7196581,.35982905,.35982905)" stroke-width="1" stroke-linecap="butt" stroke-miterlimit="10" stroke-linejoin="miter" fill="none" stroke="#000000" d="M 101.2 587.58 C 101.2 568.91 298.8 568.91 298.8 587.58 L 298.8 672.17 C 298.8 690.84 101.2 690.84 101.2 672.17 L 101.2 587.58 Z "/>
<path transform="matrix(.7196581,0,0,.7196581,.35982905,.35982905)" stroke-width="1" stroke-linecap="butt" stroke-miterlimit="10" stroke-linejoin="miter" fill="none" stroke="#000000" d="M 101.2 587.58 C 101.2 601.58 298.8 601.58 298.8 587.58 M 101.2 594.58 C 101.2 608.58 298.8 608.58 298.8 594.58 M 101.2 601.58 C 101.2 615.58 298.8 615.58 298.8 601.58 "/>
<g id="Layer-1" data-name="P">
</g>
<text xml:space="preserve" transform="matrix(.7196581 0 0 .7196581 0 0)" font-size="20" font-family="ArialMT"><tspan y="655" x="165.53125 175.53125 186.65125 196.65125 202.21125 207.77124 217.77124 228.89124">Test set</tspan></text>
<path transform="matrix(.7196581,0,0,.7196581,.35982905,.35982905)" stroke-width="1" stroke-linecap="butt" stroke-miterlimit="10" stroke-linejoin="miter" fill="none" stroke="#000000" d="M 298.8 629.88 L 444.43 629.88 "/>
<path transform="matrix(.7196581,0,0,.7196581,.35982905,.35982905)" d="M 449.68 629.88 L 442.68 633.38 L 444.43 629.88 L 442.68 626.38 L 449.68 629.88 Z "/>
<path transform="matrix(.7196581,0,0,.7196581,.35982905,.35982905)" stroke-width="1" stroke-linecap="butt" stroke-miterlimit="10" stroke-linejoin="miter" fill="none" stroke="#000000" d="M 449.68 629.88 L 442.68 633.38 L 444.43 629.88 L 442.68 626.38 L 449.68 629.88 Z "/>
<path transform="matrix(.7196581,0,0,.7196581,0,0)" d="M 351 619 L 411 619 L 411 643 L 351 643 Z " fill="#ffffff"/>
<g id="Layer-1" data-name="P">
</g>
<text xml:space="preserve" transform="matrix(.7196581 0 0 .7196581 0 0)" font-size="20" font-family="ArialMT"><tspan y="638" x="350.5 362.72 377.16 390.5 396.06">TRAIN</tspan></text>
<path transform="matrix(.7196581,0,0,.7196581,.35982905,.35982905)" stroke-width="1" stroke-linecap="butt" stroke-miterlimit="10" stroke-linejoin="miter" fill="none" stroke="#000000" d="M 570 629.88 L 687.63 629.88 "/>
<path transform="matrix(.7196581,0,0,.7196581,.35982905,.35982905)" d="M 692.88 629.88 L 685.88 633.38 L 687.63 629.88 L 685.88 626.38 L 692.88 629.88 Z "/>
<path transform="matrix(.7196581,0,0,.7196581,.35982905,.35982905)" stroke-width="1" stroke-linecap="butt" stroke-miterlimit="10" stroke-linejoin="miter" fill="none" stroke="#000000" d="M 692.88 629.88 L 685.88 633.38 L 687.63 629.88 L 685.88 626.38 L 692.88 629.88 Z "/>
<path transform="matrix(.7196581,0,0,.7196581,.35982905,.35982905)" d="M 450.8 573.58 L 570 573.58 L 570 686.17007 L 450.8 686.17007 Z "/>
<path transform="matrix(.7196581,0,0,.7196581,.35982905,.35982905)" stroke-width="1" stroke-linecap="butt" stroke-miterlimit="4" stroke-linejoin="miter" fill="none" stroke="#000000" d="M 450.8 573.58 L 570 573.58 L 570 686.17007 L 450.8 686.17007 Z "/>
<g id="Layer-1" data-name="P">
</g>
<text fill="#ffffff" xml:space="preserve" transform="matrix(.7196581 0 0 .7196581 0 0)" font-size="20" font-family="ArialMT"><tspan y="614" x="472.15626 486.59626 497.71626 507.71626 512.15628 522.15628 526.59628 537.71627">Decision</tspan></text>
<g id="Layer-1" data-name="P">
<g id="Layer-2" data-name="Span">
</g>
</g>
<text fill="#ffffff" xml:space="preserve" transform="matrix(.7196581 0 0 .7196581 0 0)" font-size="20" font-family="ArialMT"><tspan y="638" x="490.48439 496.04438 502.70439 513.8244 524.9444">tree </tspan></text>
<g id="Layer-1" data-name="P">
<g id="Layer-2" data-name="Span">
</g>
</g>
<text fill="#ffffff" xml:space="preserve" transform="matrix(.7196581 0 0 .7196581 0 0)" font-size="20" font-family="ArialMT"><tspan y="662" x="451.04689"> </tspan></text>
<g id="Layer-1" data-name="P">
</g>
<text fill="#ffffff" xml:space="preserve" transform="matrix(.7196581 0 0 .7196581 0 0)" font-size="20" font-family="ArialMT"><tspan y="662" x="456.59376 473.25376 477.69377 487.69377 497.69377 502.13377 513.2538 523.2538 533.2538 537.6938 543.2538 547.6938 558.8138">Misclassified</tspan></text>
<path transform="matrix(.7196581,0,0,.7196581,.35982905,.35982905)" d="M 815.6 479.75 L 998 479.75 L 998 592.33999 L 815.6 592.33999 Z " fill="#ffffff"/>
<path transform="matrix(.7196581,0,0,.7196581,.35982905,.35982905)" stroke-width="1" stroke-linecap="butt" stroke-miterlimit="4" stroke-linejoin="miter" fill="none" stroke="#000000" d="M 815.6 479.75 L 998 479.75 L 998 592.33999 L 815.6 592.33999 Z "/>
<g id="Layer-1" data-name="P">
</g>
<text xml:space="preserve" transform="matrix(.7196581 0 0 .7196581 0 0)" font-size="20" font-family="ArialMT"><tspan y="544" x="848.6406 863.0806 874.2006 884.2006 888.6406 898.6406 903.0806 914.2006 925.3206 930.8806 936.4406 943.1006 954.2206">Decision tree</tspan></text>
<path transform="matrix(.7196581,0,0,.7196581,.35982905,.35982905)" d="M 937.2 667.41 L 1089.2 667.41 L 1089.2 780 L 937.2 780 Z " fill="#ffffff"/>
<path transform="matrix(.7196581,0,0,.7196581,.35982905,.35982905)" stroke-width="1" stroke-linecap="butt" stroke-miterlimit="4" stroke-linejoin="miter" fill="none" stroke="#000000" d="M 937.2 667.41 L 1089.2 667.41 L 1089.2 780 L 937.2 780 Z "/>
<g id="Layer-1" data-name="P">
</g>
<text xml:space="preserve" transform="matrix(.7196581 0 0 .7196581 0 0)" font-size="20" font-family="ArialMT"><tspan y="708" x="992.4375 1006.8775 1011.3175 1022.4375">High</tspan></text>
<g id="Layer-1" data-name="P">
</g>
<text xml:space="preserve" transform="matrix(.7196581 0 0 .7196581 0 0)" font-size="20" font-family="ArialMT"><tspan y="732" x="956.3125 972.9725 977.4125 987.4125 997.4125 1001.8525 1012.9725 1022.9725 1032.9724 1037.4124 1042.9724 1047.4124 1058.5324">misclassified</tspan></text>
<g id="Layer-1" data-name="P">
</g>
<text xml:space="preserve" transform="matrix(.7196581 0 0 .7196581 0 0)" font-size="20" font-family="ArialMT"><tspan y="756" x="993.5469 1000.20687 1011.32687 1016.88687 1021.32687">ratio</tspan></text>
<path transform="matrix(.7196581,0,0,.7196581,.35982905,.35982905)" stroke-width="1" stroke-linecap="butt" stroke-miterlimit="10" stroke-linejoin="miter" fill="none" stroke="#000000" d="M 906.8 592.35 L 906.8 630 L 1013.2 630 L 1013.2 667.41 "/>
<path transform="matrix(.7196581,0,0,.7196581,.35982905,.35982905)" d="M 724.4 667.41 L 876.4 667.41 L 876.4 780 L 724.4 780 Z " fill="#ffffff"/>
<path transform="matrix(.7196581,0,0,.7196581,.35982905,.35982905)" stroke-width="1" stroke-linecap="butt" stroke-miterlimit="4" stroke-linejoin="miter" fill="none" stroke="#000000" d="M 724.4 667.41 L 876.4 667.41 L 876.4 780 L 724.4 780 Z "/>
<g id="Layer-1" data-name="P">
</g>
<text xml:space="preserve" transform="matrix(.7196581 0 0 .7196581 0 0)" font-size="20" font-family="ArialMT"><tspan y="708" x="781.65628 792.77627 803.89627">Low</tspan></text>
<g id="Layer-1" data-name="P">
</g>
<text xml:space="preserve" transform="matrix(.7196581 0 0 .7196581 0 0)" font-size="20" font-family="ArialMT"><tspan y="732" x="743.3125 759.9725 764.4125 774.4125 784.4125 788.8525 799.9725 809.9725 819.9725 824.4125 829.9725 834.4125 845.5325">misclassified</tspan></text>
<g id="Layer-1" data-name="P">
</g>
<text xml:space="preserve" transform="matrix(.7196581 0 0 .7196581 0 0)" font-size="20" font-family="ArialMT"><tspan y="756" x="780.5469 787.20687 798.32687 803.88687 808.32687">ratio</tspan></text>
<path transform="matrix(.7196581,0,0,.7196581,.35982905,.35982905)" stroke-width="1" stroke-linecap="butt" stroke-miterlimit="10" stroke-linejoin="miter" fill="none" stroke="#000000" d="M 906.8 592.35 L 906.8 630 L 800.4 630 L 800.4 667.41 "/>
<path transform="matrix(.7196581,0,0,.7196581,.35982905,.35982905)" d="M 724.4 648.64 C 724.4 603.6 724.4 581.09 754.8 581.09 C 734.53 581.09 734.53 536.05 754.8 536.05 C 775.07 536.05 775.07 581.09 754.8 581.09 C 785.2 581.09 785.2 603.6 785.2 648.64 L 724.4 648.64 Z " fill="#99ff33"/>
<path transform="matrix(.7196581,0,0,.7196581,.35982905,.35982905)" stroke-width="1" stroke-linecap="butt" stroke-miterlimit="10" stroke-linejoin="miter" fill="none" stroke="#000000" d="M 724.4 648.64 C 724.4 603.6 724.4 581.09 754.8 581.09 C 734.53 581.09 734.53 536.05 754.8 536.05 C 775.07 536.05 775.07 581.09 754.8 581.09 C 785.2 581.09 785.2 603.6 785.2 648.64 L 724.4 648.64 Z "/>
<g id="Layer-1" data-name="P">
<g id="Layer-2" data-name="Span">
</g>
</g>
<text xml:space="preserve" transform="matrix(.7196581 0 0 .7196581 0 0)" font-size="20" font-family="ArialMT"><tspan y="564" x="754.5"> </tspan></text>
<g id="Layer-1" data-name="P">
<g id="Layer-2" data-name="Span">
</g>
</g>
<text xml:space="preserve" transform="matrix(.7196581 0 0 .7196581 0 0)" font-size="20" font-family="ArialMT"><tspan y="588" x="754.5"> </tspan></text>
<g id="Layer-1" data-name="P">
</g>
<text xml:space="preserve" transform="matrix(.7196581 0 0 .7196581 0 0)" font-size="20" font-family="ArialMT"><tspan y="612" x="731.71878 745.0588 751.71878 762.83877 768.39877 772.83877">Profil</tspan></text>
<g id="Layer-1" data-name="P">
</g>
<text xml:space="preserve" transform="matrix(.7196581 0 0 .7196581 0 0)" font-size="20" font-family="ArialMT"><tspan y="636" x="748.9375">1</tspan></text>
<path transform="matrix(.7196581,0,0,.7196581,.35982905,.35982905)" d="M 1028.4 648.64 C 1028.4 603.6 1028.4 581.09 1058.8 581.09 C 1038.53 581.09 1038.53 536.05 1058.8 536.05 C 1079.07 536.05 1079.07 581.09 1058.8 581.09 C 1089.2 581.09 1089.2 603.6 1089.2 648.64 L 1028.4 648.64 Z " fill="#ff66b3"/>
<path transform="matrix(.7196581,0,0,.7196581,.35982905,.35982905)" stroke-width="1" stroke-linecap="butt" stroke-miterlimit="10" stroke-linejoin="miter" fill="none" stroke="#000000" d="M 1028.4 648.64 C 1028.4 603.6 1028.4 581.09 1058.8 581.09 C 1038.53 581.09 1038.53 536.05 1058.8 536.05 C 1079.07 536.05 1079.07 581.09 1058.8 581.09 C 1089.2 581.09 1089.2 603.6 1089.2 648.64 L 1028.4 648.64 Z "/>
<g id="Layer-1" data-name="P">
<g id="Layer-2" data-name="Span">
</g>
</g>
<text xml:space="preserve" transform="matrix(.7196581 0 0 .7196581 0 0)" font-size="20" font-family="ArialMT"><tspan y="564" x="1058.5"> </tspan></text>
<g id="Layer-1" data-name="P">
<g id="Layer-2" data-name="Span">
</g>
</g>
<text xml:space="preserve" transform="matrix(.7196581 0 0 .7196581 0 0)" font-size="20" font-family="ArialMT"><tspan y="588" x="1058.5"> </tspan></text>
<g id="Layer-1" data-name="P">
</g>
<text xml:space="preserve" transform="matrix(.7196581 0 0 .7196581 0 0)" font-size="20" font-family="ArialMT"><tspan y="612" x="1035.7188 1049.0587 1055.7188 1066.8388 1072.3988 1076.8388">Profil</tspan></text>
<g id="Layer-1" data-name="P">
</g>
<text xml:space="preserve" transform="matrix(.7196581 0 0 .7196581 0 0)" font-size="20" font-family="ArialMT"><tspan y="636" x="1052.9375">2</tspan></text>
</g>
</g>
</svg>
